<?xml version="1.0" encoding="UTF-8"?>
<svg id="Livello_1" xmlns="http://www.w3.org/2000/svg" version="1.1" viewBox="0 0 1777.65 1777.65">
  <!-- Generator: Adobe Illustrator 30.0.0, SVG Export Plug-In . SVG Version: 2.1.1 Build 123)  -->
  <defs>
    <style>
      .st0 {
        fill: #95e600;
      }
    </style>
  </defs>
  <g>
    <rect class="st0" x="1292.4" y="1094.44" width="250.77" height="5.45"/>
    <rect class="st0" x="1517.67" y="927.02" width="24.41" height="107.18"/>
    <polygon class="st0" points="1506.53 927.02 1506.53 946.13 1477.55 946.13 1477.55 1034.19 1453.14 1034.19 1453.14 946.13 1424.14 946.13 1424.14 927.02 1506.53 927.02"/>
    <polygon class="st0" points="1418.94 927.02 1418.94 946.13 1389.94 946.13 1389.94 1034.19 1365.53 1034.19 1365.53 946.13 1336.54 946.13 1336.54 927.02 1418.94 927.02"/>
    <polygon class="st0" points="1327.44 1015.1 1327.44 1034.19 1262.66 1034.19 1262.66 927.02 1327.44 927.02 1327.44 946.13 1287.06 946.13 1287.06 970.51 1322.76 970.51 1322.76 988.84 1287.06 988.84 1287.06 1015.1 1327.44 1015.1"/>
    <polygon class="st0" points="1245.61 927.02 1245.61 1034.19 1220.68 1034.19 1174.37 964.09 1174.37 1034.19 1149.96 1034.19 1149.96 927.02 1174.89 927.02 1221.19 997.46 1221.19 927.02 1245.61 927.02"/>
    <path class="st0" d="M1239.17,1099.7l-1.47.44,9.28,15.75h-7.29l-8.76-15.47h-5.03v15.47h-6.32v-38.02h14.07c2.94,0,5.46.51,7.48,1.53,2,1,3.52,2.37,4.5,4.04,1.01,1.72,1.52,3.65,1.52,5.75,0,2.44-.71,4.66-2.12,6.61-1.33,1.83-3.29,3.13-5.84,3.9ZM1238.75,1094.3c1.21-1.18,1.83-2.84,1.83-4.92s-.62-3.67-1.84-4.82c-1.22-1.16-3.03-1.74-5.39-1.74h-7.46v13.28h7.46c2.38,0,4.19-.61,5.4-1.8Z"/>
    <polygon class="st0" points="1188.36 1111.04 1188.36 1115.89 1166.98 1115.89 1166.98 1077.81 1188.36 1077.81 1188.36 1082.66 1173.3 1082.66 1173.3 1094.23 1186.65 1094.23 1186.65 1098.89 1173.3 1098.89 1173.3 1111.04 1188.36 1111.04"/>
    <path class="st0" d="M1137.34,1089.31c0,1.99-.47,3.86-1.42,5.58-.9,1.69-2.37,3.09-4.37,4.16-2.02,1.07-4.62,1.61-7.71,1.61h-7.46v15.23h-6.31v-38.02h13.77c2.92,0,5.45.51,7.48,1.49,1.99.99,3.52,2.36,4.5,4.04,1,1.73,1.51,3.71,1.51,5.9ZM1130.8,1089.31c0-2.47-.94-6.61-7.3-6.61h-7.11v13.17h7.11c2.4,0,4.24-.58,5.45-1.73,1.24-1.16,1.85-2.79,1.85-4.83Z"/>
    <polygon class="st0" points="1132.9 927.02 1132.9 1034.19 1107.97 1034.19 1061.67 964.09 1061.67 1034.19 1037.25 1034.19 1037.25 927.02 1062.18 927.02 1108.49 997.46 1108.49 927.02 1132.9 927.02"/>
    <polygon class="st0" points="1132 735.78 1132 773.69 910.76 865.78 922.09 818.98 1090.62 754.65 951.21 698.65 960.44 660.54 1132 735.78"/>
    <path class="st0" d="M1077.56,1086.75c1.72,2.95,2.58,6.32,2.58,10.01s-.87,7.11-2.58,10.08c-1.73,2.94-4.1,5.28-7.06,6.92-2.97,1.67-6.27,2.53-9.82,2.53s-6.85-.85-9.82-2.53c-2.95-1.64-5.35-3.98-7.09-6.92-1.73-2.95-2.61-6.35-2.61-10.08s.88-7.06,2.61-10.01c1.74-2.94,4.12-5.28,7.09-6.94,2.94-1.66,6.26-2.51,9.82-2.51s6.91.84,9.85,2.51,5.31,4,7.02,6.94ZM1073.6,1096.76c0-2.79-.55-5.25-1.63-7.32-1.08-2.12-2.61-3.77-4.56-4.9-1.93-1.15-4.19-1.72-6.72-1.72s-4.81.57-6.74,1.71c-1.97,1.13-3.52,2.79-4.61,4.91-1.08,2.11-1.63,4.57-1.63,7.32s.55,5.24,1.63,7.36,2.63,3.79,4.59,4.97c1.97,1.15,4.24,1.73,6.75,1.73s4.76-.58,6.72-1.73c1.94-1.17,3.49-2.83,4.58-4.97,1.07-2.1,1.61-4.58,1.61-7.36Z"/>
    <path class="st0" d="M988.27,927.02l38.78,107.18h-25.82l-6.54-19.32h-42.45l-6.55,19.32h-25.49l38.78-107.18h29.29ZM988.6,996.54l-15.13-44.7-14.96,44.7h30.1Z"/>
    <polygon class="st0" points="1014.03 1111.21 1014.03 1115.89 994.64 1115.89 994.64 1077.87 1000.97 1077.87 1000.97 1111.21 1014.03 1111.21"/>
    <polygon class="st0" points="963.43 1111.04 963.43 1115.89 942.05 1115.89 942.05 1077.81 963.43 1077.81 963.43 1082.66 948.38 1082.66 948.38 1094.23 961.73 1094.23 961.73 1098.89 948.38 1098.89 948.38 1111.04 963.43 1111.04"/>
    <polygon class="st0" points="939.65 605.75 876.73 865.61 846.97 865.61 909.2 605.75 939.65 605.75"/>
    <polygon class="st0" points="917.63 927.02 879.61 1034.19 847.84 1034.19 809.83 927.02 835.79 927.02 863.73 1012.11 891.83 927.02 917.63 927.02"/>
    <polygon class="st0" points="912.92 1077.87 898.98 1115.89 890.47 1115.89 876.52 1077.87 883.3 1077.87 894.78 1111.07 906.21 1077.87 912.92 1077.87"/>
    <polygon class="st0" points="873.57 612.36 862.35 659.23 702.85 720.4 799.78 758.31 800.65 758.65 811.66 720.59 852.54 701.32 826.13 810.48 661.56 740.09 661.56 701.83 873.57 612.36"/>
    <polygon class="st0" points="848.07 1111.04 848.07 1115.89 826.7 1115.89 826.7 1077.81 848.07 1077.81 848.07 1082.66 833.01 1082.66 833.01 1094.23 846.36 1094.23 846.36 1098.89 833.01 1098.89 833.01 1111.04 848.07 1111.04"/>
    <path class="st0" d="M766.29,928.42l38.32,105.77h-12.58l-8.73-24.15h-48.96l-8.73,24.15h-12.57l38.47-105.77h14.78ZM780.05,1000.75l-21.23-59.33-21.23,59.33h42.47Z"/>
    <path class="st0" d="M794.24,1086.86c1.65,2.85,2.48,6.25,2.48,10.07s-.83,7.19-2.48,10.02c-1.63,2.81-3.98,5.02-6.99,6.58-3.06,1.56-6.63,2.36-10.62,2.36h-13.03v-38.02h13.03c4.01,0,7.58.79,10.62,2.35,3.01,1.54,5.36,3.77,6.99,6.64ZM790.23,1096.93c0-4.34-1.22-7.79-3.64-10.25-2.42-2.48-5.85-3.74-10.23-3.74h-6.44v27.8h6.44c4.37,0,7.82-1.22,10.23-3.64,2.42-2.42,3.64-5.84,3.64-10.18Z"/>
    <polygon class="st0" points="700.18 1024.76 700.18 1034.19 643.97 1034.19 643.97 927.65 700.18 927.65 700.18 937.08 655.92 937.08 655.92 975.65 695.51 975.65 695.51 985.1 655.92 985.1 655.92 1024.76 700.18 1024.76"/>
    <path class="st0" d="M688.41,1096.46l3.02.99c1.55.49,2.86,1.43,3.91,2.79,1.33,1.64,2,3.57,2,5.73,0,1.95-.48,3.68-1.44,5.15-.94,1.47-2.35,2.64-4.18,3.48-1.86.85-4.1,1.3-6.64,1.3h-16.28v-38.02h15.54c2.57,0,4.8.42,6.63,1.24,1.79.79,3.16,1.91,4.08,3.33.91,1.43,1.37,3.06,1.37,4.84,0,2.11-.56,3.89-1.66,5.28-.89,1.12-2.06,2.01-3.45,2.62l-2.9,1.28ZM688.91,1100.36c-1.28-1.09-3.01-1.64-5.13-1.64h-8.66v12.31h8.83c2.11,0,3.81-.53,5.03-1.55h.01c1.27-1.07,1.91-2.58,1.91-4.49s-.67-3.49-1.99-4.63ZM689.92,1088.46c0-1.84-.61-3.29-1.82-4.31-1.16-.98-2.8-1.48-4.9-1.48h-8.09v11.57h8.09c2.07,0,3.72-.49,4.9-1.47,1.2-1,1.82-2.45,1.82-4.3Z"/>
    <polygon class="st0" points="637.58 1111.04 637.58 1115.89 616.21 1115.89 616.21 1077.81 637.58 1077.81 637.58 1082.66 622.53 1082.66 622.53 1094.23 635.88 1094.23 635.88 1098.89 622.53 1098.89 622.53 1111.04 637.58 1111.04"/>
    <path class="st0" d="M597.76,989.04l27.06,45.15h-14.37l-25.87-44.42h-18.92v44.42h-11.94v-106.4h33.95c8,0,14.83,1.38,20.31,4.1,5.44,2.7,9.56,6.37,12.23,10.94,2.7,4.58,4.06,9.9,4.06,15.8,0,7.19-2.1,13.63-6.24,19.12-4.13,5.47-10.44,9.16-18.75,10.95l-1.53.34ZM611.87,958.63c0-6.74-2.03-12.04-6.04-15.78-4-3.72-10.1-5.61-18.15-5.61h-22.01v43.4h22.01c7.97,0,14.05-2.02,18.1-6.01,4.04-4,6.1-9.38,6.1-16Z"/>
    <polygon class="st0" points="586.77 1077.87 576.15 1115.89 568.03 1115.89 559.97 1085.32 551.56 1115.89 543.49 1115.94 533.24 1077.87 540.06 1077.87 547.64 1111.26 556.38 1077.87 563.98 1077.87 572.26 1111.17 579.92 1077.87 586.77 1077.87"/>
    <path class="st0" d="M530.5,952.79c4.52,8.01,6.8,17.57,6.8,28.45s-2.28,20.41-6.79,28.36c-4.49,7.93-11.05,14.07-19.48,18.26-8.48,4.21-18.67,6.35-30.29,6.35h-32.7v-106.4h32.7c11.62,0,21.79,2.19,30.28,6.5,8.44,4.3,14.99,10.52,19.48,18.49ZM513.64,1013.28c7.56-7.61,11.4-18.39,11.4-32.04s-3.86-24.66-11.47-32.43c-7.62-7.77-18.66-11.72-32.84-11.72h-20.76v87.67h20.76c7.13,0,13.47-.97,18.97-2.89,5.49-1.92,10.16-4.79,13.93-8.59Z"/>
    <rect class="st0" x="234.48" y="1094.44" width="250.77" height="5.45"/>
    <polygon class="st0" points="426.15 927.65 426.15 1034.19 413.69 1034.19 354.91 945.06 354.91 1034.19 342.97 1034.19 342.97 927.65 355.43 927.65 414.21 1016.61 414.21 927.65 426.15 927.65"/>
    <path class="st0" d="M289.32,928.42l38.31,105.77h-12.57l-8.73-24.15h-48.97l-8.73,24.15h-12.57l38.47-105.77h14.8ZM303.08,1000.75l-21.23-59.33-21.24,59.33h42.48Z"/>
  </g>
</svg>